<?xml version="1.0" encoding="utf-8"?>
<!-- Generator: Adobe Illustrator 22.0.1, SVG Export Plug-In . SVG Version: 6.00 Build 0)  -->
<svg version="1.1" id="Layer_1" xmlns="http://www.w3.org/2000/svg" xmlns:xlink="http://www.w3.org/1999/xlink" x="0px" y="0px"
	 viewBox="0 0 223.4 46.5" style="enable-background:new 0 0 223.4 46.5;" xml:space="preserve">
<style type="text/css">
	.st0{fill:#02A1D8;}
	.st1{fill:#00A0DC;}
	.st2{fill:#109FDA;}
	.st3{fill:#414142;}
</style>
<g>
	<path d="M82.4,11.4c1,0,1.9,0.1,2.8,0.4c0.8,0.2,1.6,0.6,2.3,1h5.8v0.8c0,0.4-0.2,0.6-0.6,0.6l-3.5,0.3c0.4,0.6,0.8,1.2,1,2
		c0.2,0.7,0.3,1.5,0.3,2.3c0,1.1-0.2,2.1-0.6,3c-0.4,0.9-1,1.7-1.7,2.3c-0.7,0.6-1.6,1.1-2.6,1.5c-1,0.4-2.1,0.5-3.3,0.5
		c-1.3,0-2.5-0.2-3.6-0.6c-0.6,0.4-1.1,0.8-1.5,1.3c-0.4,0.5-0.6,1-0.6,1.5c0,0.7,0.2,1.2,0.7,1.5c0.5,0.4,1.1,0.6,1.8,0.8
		c0.8,0.2,1.6,0.3,2.6,0.3c1,0,2,0.1,3,0.1c1,0.1,2,0.2,3,0.3c1,0.1,1.8,0.4,2.6,0.7c0.8,0.3,1.4,0.8,1.8,1.4
		c0.5,0.6,0.7,1.4,0.7,2.5c0,0.9-0.2,1.9-0.7,2.7c-0.5,0.9-1.2,1.6-2,2.3c-0.9,0.7-2,1.2-3.2,1.6c-1.3,0.4-2.7,0.6-4.3,0.6
		c-1.6,0-3-0.2-4.2-0.5c-1.2-0.3-2.2-0.8-3-1.3c-0.8-0.6-1.4-1.2-1.8-1.9c-0.4-0.7-0.6-1.5-0.6-2.3c0-1.2,0.4-2.2,1.2-3.1
		c0.8-0.9,1.9-1.5,3.3-2c-0.8-0.3-1.4-0.6-1.8-1.1c-0.5-0.5-0.7-1.2-0.7-2c0-0.3,0.1-0.7,0.2-1c0.1-0.4,0.3-0.7,0.6-1
		c0.2-0.3,0.5-0.7,0.9-1c0.3-0.3,0.7-0.6,1.2-0.8c-1.1-0.6-1.9-1.5-2.5-2.5c-0.6-1-0.9-2.3-0.9-3.6c0-1.1,0.2-2.1,0.6-3
		c0.4-0.9,0.9-1.7,1.6-2.3c0.7-0.6,1.6-1.1,2.6-1.5C80.1,11.5,81.2,11.4,82.4,11.4z M90.9,36.1c0-0.7-0.2-1.3-0.6-1.7
		c-0.4-0.4-0.9-0.8-1.5-1c-0.6-0.2-1.3-0.4-2.2-0.5c-0.8-0.1-1.7-0.2-2.6-0.2c-0.9,0-1.8-0.1-2.7-0.1c-0.9,0-1.7-0.1-2.5-0.3
		c-0.6,0.2-1.1,0.5-1.6,0.8c-0.5,0.3-0.9,0.6-1.3,1c-0.4,0.4-0.6,0.8-0.8,1.2c-0.2,0.4-0.3,0.9-0.3,1.5c0,0.7,0.2,1.3,0.5,1.9
		c0.3,0.6,0.8,1.1,1.5,1.5c0.7,0.4,1.5,0.8,2.4,1c1,0.2,2.1,0.4,3.3,0.4c1.2,0,2.2-0.1,3.2-0.4c1-0.3,1.9-0.6,2.6-1.1
		c0.7-0.5,1.3-1,1.7-1.7C90.7,37.6,90.9,36.9,90.9,36.1z M82.4,24.5c1,0,1.8-0.1,2.6-0.4c0.8-0.3,1.4-0.7,1.9-1.2
		c0.5-0.5,0.9-1.1,1.2-1.8c0.3-0.7,0.4-1.5,0.4-2.3c0-0.9-0.1-1.6-0.4-2.3c-0.3-0.7-0.7-1.3-1.2-1.8c-0.5-0.5-1.2-0.9-1.9-1.2
		c-0.8-0.3-1.6-0.4-2.6-0.4c-1,0-1.8,0.1-2.6,0.4c-0.8,0.3-1.4,0.7-1.9,1.2c-0.5,0.5-0.9,1.1-1.2,1.8c-0.3,0.7-0.4,1.5-0.4,2.3
		c0,0.9,0.1,1.6,0.4,2.3c0.3,0.7,0.7,1.3,1.2,1.8c0.5,0.5,1.2,0.9,1.9,1.2C80.6,24.3,81.5,24.5,82.4,24.5z"/>
	<path d="M106.6,11.4c1.3,0,2.5,0.2,3.6,0.7c1.1,0.4,2,1.1,2.8,1.9c0.8,0.8,1.4,1.9,1.9,3.1c0.5,1.2,0.7,2.7,0.7,4.3
		c0,0.3-0.1,0.6-0.1,0.7c-0.1,0.1-0.3,0.2-0.5,0.2H98.5v0.4c0,1.7,0.2,3.2,0.6,4.5c0.4,1.3,1,2.4,1.7,3.3c0.7,0.9,1.6,1.5,2.7,2
		c1,0.4,2.2,0.7,3.5,0.7c1.1,0,2.1-0.1,3-0.4c0.8-0.3,1.5-0.5,2.1-0.8c0.6-0.3,1-0.6,1.4-0.8c0.3-0.3,0.6-0.4,0.7-0.4
		c0.2,0,0.3,0.1,0.5,0.2l0.6,0.7c-0.4,0.5-0.9,0.9-1.5,1.3c-0.6,0.4-1.3,0.7-2,1c-0.7,0.3-1.5,0.5-2.4,0.7c-0.8,0.2-1.7,0.3-2.6,0.3
		c-1.6,0-3-0.3-4.3-0.8c-1.3-0.5-2.4-1.3-3.3-2.4c-0.9-1-1.6-2.3-2.1-3.8c-0.5-1.5-0.8-3.2-0.8-5.2c0-1.6,0.2-3.1,0.7-4.5
		c0.5-1.4,1.1-2.6,2-3.6c0.9-1,2-1.8,3.2-2.3C103.6,11.7,105,11.4,106.6,11.4z M106.7,13c-1.2,0-2.2,0.2-3.2,0.6
		c-0.9,0.4-1.7,0.9-2.4,1.6c-0.7,0.7-1.2,1.5-1.6,2.5c-0.4,1-0.7,2-0.8,3.2h15c0-1.2-0.2-2.3-0.5-3.3c-0.3-1-0.8-1.8-1.4-2.5
		c-0.6-0.7-1.3-1.2-2.2-1.5C108.6,13.2,107.7,13,106.7,13z"/>
	<path d="M127.7,34.9c-1.5,0-2.7-0.4-3.6-1.3c-0.9-0.9-1.3-2.2-1.3-4V14.1h-3.3c-0.2,0-0.3,0-0.4-0.1c-0.1-0.1-0.2-0.2-0.2-0.4v-0.8
		l3.9-0.3l0.5-8.2c0-0.1,0.1-0.3,0.2-0.4c0.1-0.1,0.2-0.2,0.4-0.2h1v8.7h7.2v1.6h-7.2v15.5c0,0.6,0.1,1.2,0.2,1.6
		c0.2,0.5,0.4,0.8,0.7,1.1c0.3,0.3,0.6,0.5,1,0.6c0.4,0.1,0.8,0.2,1.2,0.2c0.6,0,1-0.1,1.4-0.2c0.4-0.2,0.7-0.3,1-0.5
		c0.3-0.2,0.5-0.4,0.7-0.5c0.2-0.2,0.3-0.2,0.4-0.2c0.1,0,0.2,0.1,0.4,0.2l0.6,1c-0.6,0.6-1.3,1.2-2.2,1.5
		C129.5,34.7,128.6,34.9,127.7,34.9z"/>
	<path d="M142.7,41.9c-0.1,0.2-0.2,0.4-0.4,0.5c-0.1,0.1-0.4,0.2-0.6,0.2h-1.6l4-8.9l-9.6-21.9h1.8c0.2,0,0.4,0.1,0.5,0.2
		c0.1,0.1,0.2,0.2,0.3,0.4l7.7,17.7c0.1,0.2,0.2,0.5,0.2,0.7c0.1,0.2,0.1,0.5,0.2,0.7c0.1-0.2,0.2-0.5,0.2-0.7
		c0.1-0.2,0.2-0.5,0.3-0.7l7.6-17.7c0.1-0.2,0.2-0.3,0.3-0.4c0.1-0.1,0.3-0.2,0.5-0.2h1.7L142.7,41.9z"/>
	<path d="M160.1,34.5V11.7h1.2c0.4,0,0.6,0.2,0.7,0.6l0.2,3.4c1-1.3,2.3-2.4,3.6-3.2c1.4-0.8,2.9-1.2,4.6-1.2c1.2,0,2.4,0.2,3.3,0.6
		c1,0.4,1.7,1,2.4,1.7c0.6,0.7,1.1,1.6,1.4,2.7c0.3,1.1,0.5,2.2,0.5,3.6v14.6h-2.2V20c0-2.1-0.5-3.8-1.5-5c-1-1.2-2.5-1.8-4.5-1.8
		c-1.5,0-2.9,0.4-4.2,1.2c-1.3,0.8-2.4,1.8-3.4,3.2v17.1H160.1z"/>
	<path d="M193.5,11.4c1.3,0,2.5,0.2,3.6,0.7c1.1,0.4,2,1.1,2.8,1.9c0.8,0.8,1.4,1.9,1.9,3.1c0.5,1.2,0.7,2.7,0.7,4.3
		c0,0.3,0,0.6-0.1,0.7c-0.1,0.1-0.3,0.2-0.5,0.2h-16.4v0.4c0,1.7,0.2,3.2,0.6,4.5c0.4,1.3,1,2.4,1.7,3.3c0.7,0.9,1.6,1.5,2.7,2
		c1,0.4,2.2,0.7,3.5,0.7c1.1,0,2.1-0.1,3-0.4c0.8-0.3,1.5-0.5,2.1-0.8c0.6-0.3,1-0.6,1.4-0.8c0.3-0.3,0.6-0.4,0.7-0.4
		c0.2,0,0.3,0.1,0.5,0.2l0.6,0.7c-0.4,0.5-0.9,0.9-1.5,1.3c-0.6,0.4-1.3,0.7-2,1c-0.7,0.3-1.5,0.5-2.4,0.7c-0.8,0.2-1.7,0.3-2.6,0.3
		c-1.6,0-3-0.3-4.3-0.8c-1.3-0.5-2.4-1.3-3.3-2.4c-0.9-1-1.6-2.3-2.1-3.8c-0.5-1.5-0.8-3.2-0.8-5.2c0-1.6,0.2-3.1,0.7-4.5
		c0.5-1.4,1.1-2.6,2-3.6c0.9-1,2-1.8,3.2-2.3C190.4,11.7,191.8,11.4,193.5,11.4z M193.5,13c-1.2,0-2.2,0.2-3.2,0.6
		c-0.9,0.4-1.7,0.9-2.4,1.6c-0.7,0.7-1.2,1.5-1.6,2.5c-0.4,1-0.7,2-0.8,3.2h15c0-1.2-0.2-2.3-0.5-3.3c-0.3-1-0.8-1.8-1.4-2.5
		c-0.6-0.7-1.3-1.2-2.2-1.5C195.5,13.2,194.5,13,193.5,13z"/>
	<path d="M214.5,34.9c-1.5,0-2.7-0.4-3.6-1.3c-0.9-0.9-1.3-2.2-1.3-4V14.1h-3.3c-0.2,0-0.3,0-0.4-0.1c-0.1-0.1-0.2-0.2-0.2-0.4v-0.8
		l3.9-0.3l0.5-8.2c0-0.1,0.1-0.3,0.2-0.4c0.1-0.1,0.2-0.2,0.4-0.2h1v8.7h7.2v1.6h-7.2v15.5c0,0.6,0.1,1.2,0.2,1.6
		c0.2,0.5,0.4,0.8,0.7,1.1c0.3,0.3,0.6,0.5,1,0.6c0.4,0.1,0.8,0.2,1.2,0.2c0.5,0,1-0.1,1.4-0.2c0.4-0.2,0.7-0.3,1-0.5
		c0.3-0.2,0.5-0.4,0.7-0.5c0.2-0.2,0.3-0.2,0.4-0.2c0.1,0,0.2,0.1,0.4,0.2l0.6,1c-0.6,0.6-1.3,1.2-2.2,1.5
		C216.4,34.7,215.5,34.9,214.5,34.9z"/>
	<path d="M36.4,24.9L36.4,24.9H23.1c-0.7,0-1.3-0.6-1.3-1.3v-0.5c0-0.7,0.6-1.3,1.3-1.3h10.4c3.8,0,6.9-3.1,6.9-6.9v-4.2h2.9
		c0-3.8-3.1-6.9-6.9-6.9H10.9C7.1,3.8,4,6.8,4,10.7v4.2c0,3.8,3.1,6.9,6.9,6.9H12c0.7,0,1.3,0.6,1.3,1.3v0.5c0,0.7-0.6,1.3-1.3,1.3
		h-1.1C7.1,24.9,4,28,4,31.8v4.3C4,40,7.1,43,10.9,43h25.5c3.8,0,6.9-3.1,6.9-6.9v-4.3C43.3,28,40.2,24.9,36.4,24.9z M12.2,13.1
		v-0.9c0-1.2,0.9-2.1,2.1-2.1h15.7c1.2,0,2.1,1,2.1,2.1v0.9c0,1.2-0.9,2.1-2.1,2.1H14.3C13.2,15.2,12.2,14.3,12.2,13.1z M35,34.7
		c0,1.2-0.9,2.1-2.1,2.1H14.1c-1.2,0-2.1-1-2.1-2.1v-0.9c0-1.2,0.9-2.1,2.1-2.1h18.8c1.2,0,2.1,1,2.1,2.1V34.7z"/>
</g>
</svg>
