<svg xmlns="http://www.w3.org/2000/svg" xmlns:xlink="http://www.w3.org/1999/xlink" viewBox="-1211 1591 58 57"><defs><style>.a{clip-path:url(#b);}.b{fill:#02a1d8;}.c{fill:#00a0dc;}</style><clipPath id="b"><rect x="-1211" y="1591" width="58" height="57"/></clipPath></defs><g id="a" class="a"><g transform="translate(-1211.5 1591.5)"><path class="b" d="M88.9,16.1a8.627,8.627,0,0,1,2.8.4,9.432,9.432,0,0,1,2.3,1h5.8v.8a.53.53,0,0,1-.6.6l-3.5.3a6.256,6.256,0,0,1,1,2,8.524,8.524,0,0,1,.3,2.3,7.306,7.306,0,0,1-.6,3,6.576,6.576,0,0,1-1.7,2.3,9.34,9.34,0,0,1-2.6,1.5,8.8,8.8,0,0,1-3.3.5,10.46,10.46,0,0,1-3.6-.6,6.39,6.39,0,0,0-1.5,1.3,2.4,2.4,0,0,0-.6,1.5,1.579,1.579,0,0,0,.7,1.5,4.941,4.941,0,0,0,1.8.8,10.319,10.319,0,0,0,2.6.3c1,0,2,.1,3,.1l3,.3a9.89,9.89,0,0,1,2.6.7,3.677,3.677,0,0,1,1.8,1.4,3.727,3.727,0,0,1,.7,2.5,5.189,5.189,0,0,1-.7,2.7,8.725,8.725,0,0,1-2,2.3,10.668,10.668,0,0,1-3.2,1.6,14.415,14.415,0,0,1-4.3.6,17.27,17.27,0,0,1-4.2-.5,10.422,10.422,0,0,1-3-1.3,6.4,6.4,0,0,1-1.8-1.9,4.645,4.645,0,0,1-.6-2.3,4.471,4.471,0,0,1,1.2-3.1,7.7,7.7,0,0,1,3.3-2,3.956,3.956,0,0,1-1.8-1.1,2.724,2.724,0,0,1-.7-2,3.553,3.553,0,0,1,.2-1,2.075,2.075,0,0,1,.6-1,4.064,4.064,0,0,1,.9-1,3.6,3.6,0,0,1,1.2-.8,6.665,6.665,0,0,1-2.5-2.5,7.126,7.126,0,0,1-.9-3.6,7.306,7.306,0,0,1,.6-3,6.342,6.342,0,0,1,1.6-2.3,9.34,9.34,0,0,1,2.6-1.5A5.131,5.131,0,0,1,88.9,16.1Zm8.5,24.8a2.352,2.352,0,0,0-.6-1.7,3.956,3.956,0,0,0-1.5-1,10.293,10.293,0,0,0-2.2-.5,21.115,21.115,0,0,0-2.6-.2c-.9,0-1.8-.1-2.7-.1a10.074,10.074,0,0,1-2.5-.3,7.973,7.973,0,0,0-1.6.8,6.42,6.42,0,0,0-1.3,1,4.184,4.184,0,0,0-.8,1.2,3.339,3.339,0,0,0-.3,1.5,4.136,4.136,0,0,0,.5,1.9A3.607,3.607,0,0,0,83.3,45a8.656,8.656,0,0,0,2.4,1,16.562,16.562,0,0,0,3.3.4,10.8,10.8,0,0,0,3.2-.4,8.856,8.856,0,0,0,2.6-1.1,5.513,5.513,0,0,0,1.7-1.7A3.385,3.385,0,0,0,97.4,40.9ZM88.9,29.2a7.1,7.1,0,0,0,2.6-.4,5.162,5.162,0,0,0,1.9-1.2,5.675,5.675,0,0,0,1.2-1.8,5.867,5.867,0,0,0,.4-2.3,5.558,5.558,0,0,0-.4-2.3,5.675,5.675,0,0,0-1.2-1.8,6.15,6.15,0,0,0-1.9-1.2,8.65,8.65,0,0,0-5.2,0,5.162,5.162,0,0,0-1.9,1.2,5.675,5.675,0,0,0-1.2,1.8,5.867,5.867,0,0,0-.4,2.3,5.558,5.558,0,0,0,.4,2.3,5.675,5.675,0,0,0,1.2,1.8,6.15,6.15,0,0,0,1.9,1.2A7.457,7.457,0,0,0,88.9,29.2Z"/><path class="b" d="M113.1,16.2a8.571,8.571,0,0,1,3.6.7,7.735,7.735,0,0,1,2.8,1.9,9.554,9.554,0,0,1,1.9,3.1,11.415,11.415,0,0,1,.7,4.3,5.639,5.639,0,0,1-.1.7.764.764,0,0,1-.5.2H105v.4a15.324,15.324,0,0,0,.6,4.5,10.275,10.275,0,0,0,1.7,3.3,6.829,6.829,0,0,0,2.7,2,10.042,10.042,0,0,0,6.5.3c.8-.3,1.5-.5,2.1-.8s1-.6,1.4-.8a1.259,1.259,0,0,1,.7-.4c.2,0,.3.1.5.2l.6.7a6.39,6.39,0,0,1-1.5,1.3,12.445,12.445,0,0,1-2,1,13.7,13.7,0,0,1-2.4.7,10.9,10.9,0,0,1-2.6.3A11.758,11.758,0,0,1,109,39a7.838,7.838,0,0,1-3.3-2.4,10.707,10.707,0,0,1-2.1-3.8,16.231,16.231,0,0,1-.8-5.2,13.267,13.267,0,0,1,.7-4.5,10.487,10.487,0,0,1,2-3.6,9.017,9.017,0,0,1,3.2-2.3A8.173,8.173,0,0,1,113.1,16.2Zm0,1.6a8.291,8.291,0,0,0-3.2.6,7.759,7.759,0,0,0-2.4,1.6,7.161,7.161,0,0,0-1.6,2.5,10.737,10.737,0,0,0-.8,3.2h15a11.418,11.418,0,0,0-.5-3.3,6.773,6.773,0,0,0-1.4-2.5,4.825,4.825,0,0,0-2.2-1.5A6.839,6.839,0,0,0,113.1,17.8Z"/><path class="b" d="M134.1,39.7a4.836,4.836,0,0,1-3.6-1.3,5.361,5.361,0,0,1-1.3-4V18.9H126c-.2,0-.3,0-.4-.1a.52.52,0,0,1-.2-.4v-.8l3.9-.3.5-8.2a.758.758,0,0,1,.2-.4.52.52,0,0,1,.4-.2h1v8.7h7.2v1.6h-7.2V34.3a6.959,6.959,0,0,0,.2,1.6,2.979,2.979,0,0,0,.7,1.1,2.075,2.075,0,0,0,1,.6,5.019,5.019,0,0,0,1.2.2,5.212,5.212,0,0,0,1.4-.2,9.293,9.293,0,0,0,1-.5c.3-.2.5-.4.7-.5.2-.2.3-.2.4-.2s.2.1.4.2l.6,1a5.745,5.745,0,0,1-2.2,1.5A5.954,5.954,0,0,1,134.1,39.7Z"/><path class="b" d="M149.2,46.6a1,1,0,0,1-.4.5,1.072,1.072,0,0,1-.6.2h-1.6l4-8.9L141,16.5h1.8a.764.764,0,0,1,.5.2,1.38,1.38,0,0,1,.3.4l7.7,17.7a1.854,1.854,0,0,1,.2.7c.1.2.1.5.2.7a1.854,1.854,0,0,0,.2-.7c.1-.2.2-.5.3-.7l7.6-17.7a1.38,1.38,0,0,1,.3-.4.764.764,0,0,1,.5-.2h1.7Z"/><path class="b" d="M166.6,39.3V16.5h1.2a.661.661,0,0,1,.7.6l.2,3.4a13.6,13.6,0,0,1,3.6-3.2,9.022,9.022,0,0,1,4.6-1.2,8.449,8.449,0,0,1,3.3.6,6.971,6.971,0,0,1,2.4,1.7,6.91,6.91,0,0,1,1.4,2.7,13.039,13.039,0,0,1,.5,3.6V39.3h-2.2V24.7a7.647,7.647,0,0,0-1.5-5,5.523,5.523,0,0,0-4.5-1.8,7.871,7.871,0,0,0-4.2,1.2,11.419,11.419,0,0,0-3.4,3.2V39.4h-2.1Z"/><path class="b" d="M200,16.2a8.571,8.571,0,0,1,3.6.7,7.735,7.735,0,0,1,2.8,1.9,9.554,9.554,0,0,1,1.9,3.1,11.415,11.415,0,0,1,.7,4.3c0,.3,0,.6-.1.7a.764.764,0,0,1-.5.2H192v.4a15.324,15.324,0,0,0,.6,4.5,10.275,10.275,0,0,0,1.7,3.3,6.829,6.829,0,0,0,2.7,2,10.042,10.042,0,0,0,6.5.3c.8-.3,1.5-.5,2.1-.8s1-.6,1.4-.8a1.259,1.259,0,0,1,.7-.4c.2,0,.3.1.5.2l.6.7a6.39,6.39,0,0,1-1.5,1.3,12.445,12.445,0,0,1-2,1,13.7,13.7,0,0,1-2.4.7,10.9,10.9,0,0,1-2.6.3A11.758,11.758,0,0,1,196,39a7.838,7.838,0,0,1-3.3-2.4,10.707,10.707,0,0,1-2.1-3.8,16.231,16.231,0,0,1-.8-5.2,13.267,13.267,0,0,1,.7-4.5,10.488,10.488,0,0,1,2-3.6,9.017,9.017,0,0,1,3.2-2.3A7.428,7.428,0,0,1,200,16.2Zm0,1.6a8.291,8.291,0,0,0-3.2.6,7.759,7.759,0,0,0-2.4,1.6,7.161,7.161,0,0,0-1.6,2.5,10.737,10.737,0,0,0-.8,3.2h15a11.418,11.418,0,0,0-.5-3.3,6.773,6.773,0,0,0-1.4-2.5,4.825,4.825,0,0,0-2.2-1.5A7.173,7.173,0,0,0,200,17.8Z"/><path class="b" d="M221,39.7a4.836,4.836,0,0,1-3.6-1.3,5.361,5.361,0,0,1-1.3-4V18.9h-3.3c-.2,0-.3,0-.4-.1a.52.52,0,0,1-.2-.4v-.8l3.9-.3.5-8.2a.758.758,0,0,1,.2-.4.52.52,0,0,1,.4-.2h1v8.7h7.2v1.6h-7.2V34.3a6.959,6.959,0,0,0,.2,1.6,2.979,2.979,0,0,0,.7,1.1,2.075,2.075,0,0,0,1,.6,5.019,5.019,0,0,0,1.2.2,5.9,5.9,0,0,0,1.4-.2,9.293,9.293,0,0,0,1-.5c.3-.2.5-.4.7-.5.2-.2.3-.2.4-.2s.2.1.4.2l.6,1a5.745,5.745,0,0,1-2.2,1.5A5.536,5.536,0,0,1,221,39.7Z"/><path class="c" d="M42.9,29.7H29.6a1.324,1.324,0,0,1-1.3-1.3v-.5a1.324,1.324,0,0,1,1.3-1.3H40a6.914,6.914,0,0,0,6.9-6.9V15.5h2.9a6.914,6.914,0,0,0-6.9-6.9H17.4a6.914,6.914,0,0,0-6.9,6.9v4.2a6.914,6.914,0,0,0,6.9,6.9h1.1a1.324,1.324,0,0,1,1.3,1.3v.5a1.324,1.324,0,0,1-1.3,1.3H17.4a6.914,6.914,0,0,0-6.9,6.9v4.3a6.914,6.914,0,0,0,6.9,6.9H42.9a6.914,6.914,0,0,0,6.9-6.9V36.6A6.914,6.914,0,0,0,42.9,29.7ZM18.7,17.9V17a2.051,2.051,0,0,1,2.1-2.1H36.5A2.112,2.112,0,0,1,38.6,17v.9A2.051,2.051,0,0,1,36.5,20H20.8A2.051,2.051,0,0,1,18.7,17.9ZM41.5,39.4a2.051,2.051,0,0,1-2.1,2.1H20.6a2.112,2.112,0,0,1-2.1-2.1v-.9a2.051,2.051,0,0,1,2.1-2.1H39.4a2.112,2.112,0,0,1,2.1,2.1Z"/><path class="c" d="M235.5,8.6h2.2V40h-2.2Z"/><path class="c" d="M244.6,8.6h7.3a17.294,17.294,0,0,1,6.3,1.1,12.079,12.079,0,0,1,4.5,3.1,13.556,13.556,0,0,1,2.6,4.9,21.053,21.053,0,0,1,.9,6.4,22.2,22.2,0,0,1-.9,6.5,13.221,13.221,0,0,1-2.6,5,12.806,12.806,0,0,1-4.4,3.2,17.294,17.294,0,0,1-6.3,1.1h-7.3V8.6Zm7,29.5a13.185,13.185,0,0,0,5.5-1,9.907,9.907,0,0,0,3.8-2.9,12.137,12.137,0,0,0,2.2-4.4,19.986,19.986,0,0,0,.7-5.6,19.986,19.986,0,0,0-.7-5.6,11.671,11.671,0,0,0-2.2-4.3,9.926,9.926,0,0,0-3.8-2.8,13.185,13.185,0,0,0-5.5-1h-4.9V38.2h4.9Z"/></g></g></svg>