<?xml version="1.0" encoding="utf-8"?>
<!-- Generator: Adobe Illustrator 22.0.1, SVG Export Plug-In . SVG Version: 6.00 Build 0)  -->
<svg version="1.1" id="Layer_1" xmlns="http://www.w3.org/2000/svg" xmlns:xlink="http://www.w3.org/1999/xlink" x="0px" y="0px"
	 viewBox="0 0 142.7 44.6" style="enable-background:new 0 0 142.7 44.6;" xml:space="preserve">
<style type="text/css">
	.st0{fill:#02A1D8;}
	.st1{fill:#00A0DC;}
	.st2{fill:#109FDA;}
	.st3{fill:#414142;}
	.st4{fill:#939598;}
</style>
<g>
	<path class="st4" d="M52.2,22c0.6,0,1.2,0.1,1.7,0.2c0.5,0.2,1,0.4,1.4,0.6H59v0.5c0,0.2-0.1,0.4-0.4,0.4l-2.1,0.2
		c0.3,0.4,0.5,0.8,0.6,1.2c0.1,0.4,0.2,0.9,0.2,1.4c0,0.7-0.1,1.3-0.4,1.9c-0.2,0.6-0.6,1-1,1.4c-0.4,0.4-1,0.7-1.6,0.9
		c-0.6,0.2-1.3,0.3-2,0.3c-0.8,0-1.6-0.1-2.2-0.4c-0.4,0.2-0.7,0.5-0.9,0.8c-0.2,0.3-0.3,0.6-0.3,0.9c0,0.4,0.1,0.7,0.4,0.9
		c0.3,0.2,0.7,0.4,1.1,0.5c0.5,0.1,1,0.2,1.6,0.2c0.6,0,1.2,0.1,1.8,0.1c0.6,0,1.2,0.1,1.8,0.2c0.6,0.1,1.1,0.2,1.6,0.4
		c0.5,0.2,0.8,0.5,1.1,0.9c0.3,0.4,0.4,0.9,0.4,1.5c0,0.6-0.1,1.1-0.4,1.7c-0.3,0.5-0.7,1-1.3,1.4c-0.6,0.4-1.2,0.7-2,1
		c-0.8,0.3-1.7,0.4-2.6,0.4c-1,0-1.9-0.1-2.6-0.3c-0.7-0.2-1.4-0.5-1.9-0.8c-0.5-0.3-0.9-0.7-1.1-1.2c-0.3-0.5-0.4-0.9-0.4-1.4
		c0-0.7,0.2-1.4,0.7-1.9c0.5-0.5,1.2-1,2-1.2c-0.5-0.2-0.8-0.4-1.1-0.7c-0.3-0.3-0.4-0.7-0.4-1.3c0-0.2,0-0.4,0.1-0.6
		c0.1-0.2,0.2-0.4,0.3-0.6c0.2-0.2,0.3-0.4,0.5-0.6c0.2-0.2,0.5-0.4,0.7-0.5c-0.7-0.4-1.2-0.9-1.6-1.5c-0.4-0.6-0.6-1.4-0.6-2.3
		c0-0.7,0.1-1.3,0.4-1.9c0.2-0.6,0.6-1,1-1.4c0.4-0.4,1-0.7,1.6-0.9C50.8,22.2,51.5,22,52.2,22z M57.5,37.4c0-0.4-0.1-0.8-0.3-1.1
		c-0.2-0.3-0.5-0.5-0.9-0.6c-0.4-0.2-0.8-0.3-1.3-0.3c-0.5-0.1-1-0.1-1.6-0.1c-0.6,0-1.1-0.1-1.7-0.1c-0.6,0-1.1-0.1-1.6-0.2
		c-0.4,0.1-0.7,0.3-1,0.5c-0.3,0.2-0.6,0.4-0.8,0.6c-0.2,0.2-0.4,0.5-0.5,0.8c-0.1,0.3-0.2,0.6-0.2,0.9c0,0.4,0.1,0.8,0.3,1.2
		c0.2,0.4,0.5,0.7,0.9,0.9c0.4,0.3,0.9,0.5,1.5,0.6c0.6,0.2,1.3,0.2,2.1,0.2c0.7,0,1.4-0.1,2-0.2c0.6-0.2,1.2-0.4,1.6-0.7
		c0.5-0.3,0.8-0.6,1.1-1.1C57.3,38.3,57.5,37.8,57.5,37.4z M52.2,30.2c0.6,0,1.1-0.1,1.6-0.3c0.5-0.2,0.9-0.4,1.2-0.7
		c0.3-0.3,0.6-0.7,0.7-1.1c0.2-0.4,0.2-0.9,0.2-1.4c0-0.5-0.1-1-0.3-1.5c-0.2-0.4-0.4-0.8-0.7-1.1c-0.3-0.3-0.7-0.6-1.2-0.7
		c-0.5-0.2-1-0.3-1.6-0.3c-0.6,0-1.1,0.1-1.6,0.3c-0.5,0.2-0.9,0.4-1.2,0.7c-0.3,0.3-0.6,0.7-0.7,1.1c-0.2,0.4-0.3,0.9-0.3,1.5
		c0,0.5,0.1,1,0.3,1.4c0.2,0.4,0.4,0.8,0.7,1.1c0.3,0.3,0.7,0.6,1.2,0.7C51.1,30.1,51.6,30.2,52.2,30.2z"/>
	<path class="st4" d="M67.2,22.1c0.8,0,1.5,0.1,2.2,0.4c0.7,0.3,1.3,0.7,1.8,1.2c0.5,0.5,0.9,1.2,1.2,1.9c0.3,0.8,0.4,1.6,0.4,2.6
		c0,0.2,0,0.3-0.1,0.4c-0.1,0.1-0.2,0.1-0.3,0.1H62.2v0.3c0,1.1,0.1,2,0.4,2.8c0.2,0.8,0.6,1.5,1.1,2c0.5,0.5,1,1,1.6,1.2
		c0.6,0.3,1.4,0.4,2.2,0.4c0.7,0,1.3-0.1,1.8-0.2c0.5-0.2,1-0.3,1.3-0.5c0.4-0.2,0.6-0.4,0.8-0.5c0.2-0.2,0.4-0.2,0.5-0.2
		c0.1,0,0.2,0,0.3,0.1l0.4,0.5c-0.2,0.3-0.5,0.5-0.9,0.8c-0.4,0.2-0.8,0.5-1.2,0.6c-0.5,0.2-1,0.3-1.5,0.4c-0.5,0.1-1.1,0.2-1.6,0.2
		c-1,0-1.8-0.2-2.6-0.5c-0.8-0.3-1.5-0.8-2-1.5c-0.6-0.6-1-1.4-1.3-2.4c-0.3-0.9-0.5-2-0.5-3.2c0-1,0.1-1.9,0.4-2.8
		c0.3-0.9,0.7-1.6,1.2-2.2c0.5-0.6,1.2-1.1,2-1.5C65.3,22.2,66.2,22.1,67.2,22.1z M67.2,23.1c-0.7,0-1.4,0.1-2,0.3
		c-0.6,0.2-1.1,0.6-1.5,1c-0.4,0.4-0.8,0.9-1,1.5c-0.3,0.6-0.4,1.3-0.5,2h9.3c0-0.8-0.1-1.4-0.3-2c-0.2-0.6-0.5-1.1-0.9-1.5
		c-0.4-0.4-0.8-0.7-1.4-1C68.5,23.2,67.9,23.1,67.2,23.1z"/>
	<path class="st4" d="M80.2,36.6c-1,0-1.7-0.3-2.2-0.8c-0.5-0.5-0.8-1.3-0.8-2.5v-9.6h-2c-0.1,0-0.2,0-0.3-0.1
		c-0.1-0.1-0.1-0.1-0.1-0.2v-0.5l2.4-0.2l0.3-5c0-0.1,0-0.2,0.1-0.2c0.1-0.1,0.1-0.1,0.2-0.1h0.6v5.4H83v1h-4.4v9.6
		c0,0.4,0.1,0.7,0.1,1c0.1,0.3,0.2,0.5,0.4,0.7c0.2,0.2,0.4,0.3,0.6,0.4c0.2,0.1,0.5,0.1,0.8,0.1c0.3,0,0.6,0,0.9-0.1
		c0.2-0.1,0.5-0.2,0.6-0.3c0.2-0.1,0.3-0.2,0.4-0.3c0.1-0.1,0.2-0.1,0.3-0.1c0.1,0,0.1,0,0.2,0.1l0.4,0.6c-0.4,0.4-0.8,0.7-1.4,1
		C81.4,36.5,80.8,36.6,80.2,36.6z"/>
	<path class="st4" d="M89.6,40.9c-0.1,0.1-0.1,0.2-0.2,0.3c-0.1,0.1-0.2,0.1-0.4,0.1h-1l2.5-5.5l-6-13.6h1.1c0.1,0,0.3,0,0.3,0.1
		c0.1,0.1,0.1,0.1,0.2,0.2l4.8,11c0.1,0.1,0.1,0.3,0.1,0.4c0,0.1,0.1,0.3,0.1,0.4c0-0.2,0.1-0.3,0.1-0.4c0.1-0.1,0.1-0.3,0.2-0.4
		l4.7-11c0-0.1,0.1-0.2,0.2-0.2c0.1-0.1,0.2-0.1,0.3-0.1h1L89.6,40.9z"/>
	<path class="st4" d="M100.3,36.4V22.3h0.7c0.2,0,0.4,0.1,0.4,0.4l0.1,2.1c0.6-0.8,1.4-1.5,2.2-2c0.9-0.5,1.8-0.7,2.9-0.7
		c0.8,0,1.5,0.1,2,0.4c0.6,0.2,1.1,0.6,1.5,1.1c0.4,0.5,0.7,1,0.9,1.7c0.2,0.7,0.3,1.4,0.3,2.2v9h-1.3v-9c0-1.3-0.3-2.4-0.9-3.1
		c-0.6-0.8-1.5-1.1-2.8-1.1c-0.9,0-1.8,0.2-2.6,0.7c-0.8,0.5-1.5,1.1-2.1,2v10.6H100.3z"/>
	<path class="st4" d="M121,22.1c0.8,0,1.5,0.1,2.2,0.4c0.7,0.3,1.3,0.7,1.8,1.2c0.5,0.5,0.9,1.2,1.2,1.9c0.3,0.8,0.4,1.6,0.4,2.6
		c0,0.2,0,0.3-0.1,0.4c-0.1,0.1-0.2,0.1-0.3,0.1H116v0.3c0,1.1,0.1,2,0.4,2.8c0.2,0.8,0.6,1.5,1.1,2c0.5,0.5,1,1,1.6,1.2
		c0.6,0.3,1.4,0.4,2.2,0.4c0.7,0,1.3-0.1,1.8-0.2c0.5-0.2,1-0.3,1.3-0.5c0.4-0.2,0.6-0.4,0.8-0.5c0.2-0.2,0.4-0.2,0.5-0.2
		c0.1,0,0.2,0,0.3,0.1l0.4,0.5c-0.2,0.3-0.5,0.5-0.9,0.8c-0.4,0.2-0.8,0.5-1.3,0.6c-0.5,0.2-1,0.3-1.5,0.4c-0.5,0.1-1.1,0.2-1.6,0.2
		c-1,0-1.8-0.2-2.6-0.5c-0.8-0.3-1.5-0.8-2-1.5c-0.6-0.6-1-1.4-1.3-2.4c-0.3-0.9-0.5-2-0.5-3.2c0-1,0.1-1.9,0.4-2.8
		c0.3-0.9,0.7-1.6,1.2-2.2c0.5-0.6,1.2-1.1,2-1.5C119.1,22.2,120,22.1,121,22.1z M121,23.1c-0.7,0-1.4,0.1-2,0.3
		c-0.6,0.2-1.1,0.6-1.5,1c-0.4,0.4-0.8,0.9-1,1.5c-0.3,0.6-0.4,1.3-0.5,2h9.3c0-0.8-0.1-1.4-0.3-2c-0.2-0.6-0.5-1.1-0.9-1.5
		c-0.4-0.4-0.8-0.7-1.4-1C122.2,23.2,121.7,23.1,121,23.1z"/>
	<path class="st4" d="M134,36.6c-1,0-1.7-0.3-2.2-0.8c-0.5-0.5-0.8-1.3-0.8-2.5v-9.6h-2c-0.1,0-0.2,0-0.3-0.1
		c-0.1-0.1-0.1-0.1-0.1-0.2v-0.5l2.4-0.2l0.3-5c0-0.1,0-0.2,0.1-0.2c0.1-0.1,0.1-0.1,0.2-0.1h0.6v5.4h4.4v1h-4.4v9.6
		c0,0.4,0.1,0.7,0.1,1c0.1,0.3,0.2,0.5,0.4,0.7c0.2,0.2,0.4,0.3,0.6,0.4c0.2,0.1,0.5,0.1,0.8,0.1c0.3,0,0.6,0,0.9-0.1
		c0.2-0.1,0.5-0.2,0.6-0.3c0.2-0.1,0.3-0.2,0.4-0.3c0.1-0.1,0.2-0.1,0.3-0.1c0.1,0,0.2,0,0.2,0.1l0.4,0.6c-0.4,0.4-0.8,0.7-1.4,1
		C135.2,36.5,134.6,36.6,134,36.6z"/>
	<path class="st4" d="M23.7,30.5L23.7,30.5h-8.2c-0.4,0-0.8-0.4-0.8-0.8v-0.3c0-0.4,0.3-0.8,0.8-0.8h6.4c2.4,0,4.3-1.9,4.3-4.3v-2.6
		H28c0-2.4-1.9-4.3-4.3-4.3H8c-2.4,0-4.3,1.9-4.3,4.3v2.6c0,2.4,1.9,4.3,4.3,4.3h0.7c0.4,0,0.8,0.4,0.8,0.8v0.3
		c0,0.4-0.4,0.8-0.8,0.8H8c-2.4,0-4.3,1.9-4.3,4.3v2.7c0,2.4,1.9,4.3,4.3,4.3h15.8c2.4,0,4.3-1.9,4.3-4.3v-2.7
		C28,32.4,26.1,30.5,23.7,30.5z M8.8,23.1v-0.5c0-0.7,0.6-1.3,1.3-1.3h9.7c0.7,0,1.3,0.6,1.3,1.3v0.5c0,0.7-0.6,1.3-1.3,1.3h-9.7
		C9.3,24.4,8.8,23.9,8.8,23.1z M22.9,36.5c0,0.7-0.6,1.3-1.3,1.3H9.9c-0.7,0-1.3-0.6-1.3-1.3v-0.5c0-0.7,0.6-1.3,1.3-1.3h11.6
		c0.7,0,1.3,0.6,1.3,1.3V36.5z"/>
</g>
<g>
	<path class="st4" d="M4.7,3.3H7c1.8,0,3,0.6,3,2.3C9.9,7.3,8.8,8,7,8H5.7v3.1h-1V3.3z M6.9,7.2c1.4,0,2-0.5,2-1.6
		c0-1.1-0.7-1.5-2.1-1.5H5.7v3.1H6.9z"/>
	<path class="st4" d="M10.7,8.2c0-1.9,1.3-3.1,2.7-3.1s2.7,1.1,2.7,3.1c0,1.9-1.3,3.1-2.7,3.1S10.7,10.2,10.7,8.2z M15.1,8.2
		c0-1.3-0.7-2.2-1.7-2.2s-1.7,0.9-1.7,2.2s0.7,2.2,1.7,2.2S15.1,9.6,15.1,8.2z"/>
	<path class="st4" d="M16.9,5.3h1l0.9,3.4c0.1,0.6,0.2,1.1,0.3,1.6h0c0.1-0.5,0.3-1.1,0.4-1.6l0.9-3.4h1l0.9,3.4
		c0.1,0.6,0.3,1.1,0.4,1.6h0c0.1-0.5,0.2-1.1,0.4-1.6L24,5.3H25l-1.6,5.8h-1.2L21.4,8c-0.1-0.6-0.3-1.1-0.4-1.7h0
		c-0.1,0.6-0.2,1.1-0.4,1.7l-0.8,3.1h-1.2L16.9,5.3z"/>
	<path class="st4" d="M25.8,8.2c0-1.9,1.3-3.1,2.6-3.1c1.5,0,2.3,1.1,2.3,2.7c0,0.2,0,0.4,0,0.6h-3.9c0.1,1.2,0.8,2,1.9,2
		c0.6,0,1-0.2,1.5-0.5l0.4,0.6c-0.5,0.3-1.1,0.6-1.9,0.6C27,11.3,25.8,10.2,25.8,8.2z M29.8,7.8c0-1.2-0.5-1.8-1.4-1.8
		c-0.8,0-1.6,0.7-1.7,1.8H29.8z"/>
	<path class="st4" d="M32.1,5.3H33L33,6.4h0c0.4-0.7,1-1.2,1.7-1.2c0.3,0,0.4,0,0.6,0.1l-0.2,0.9c-0.2-0.1-0.3-0.1-0.6-0.1
		c-0.5,0-1.1,0.4-1.5,1.3v3.7h-1V5.3z"/>
	<path class="st4" d="M35.8,8.2c0-1.9,1.3-3.1,2.6-3.1c1.5,0,2.3,1.1,2.3,2.7c0,0.2,0,0.4,0,0.6h-3.9c0.1,1.2,0.8,2,1.9,2
		c0.6,0,1-0.2,1.5-0.5l0.4,0.6c-0.5,0.3-1.1,0.6-1.9,0.6C37,11.3,35.8,10.2,35.8,8.2z M39.8,7.8c0-1.2-0.5-1.8-1.4-1.8
		c-0.8,0-1.6,0.7-1.7,1.8H39.8z"/>
	<path class="st4" d="M41.7,8.2c0-1.9,1.2-3.1,2.5-3.1c0.7,0,1.1,0.3,1.6,0.7l0-1V2.6h1v8.5H46l-0.1-0.7h0c-0.5,0.5-1.1,0.8-1.8,0.8
		C42.7,11.3,41.7,10.2,41.7,8.2z M45.8,9.7V6.6C45.3,6.2,44.9,6,44.4,6c-0.9,0-1.7,0.9-1.7,2.2c0,1.4,0.6,2.2,1.6,2.2
		C44.9,10.5,45.3,10.2,45.8,9.7z"/>
	<path class="st4" d="M52.1,10.6L52.1,10.6L52,11.2h-0.8V2.6h1v2.3l0,1c0.5-0.5,1.2-0.8,1.8-0.8c1.5,0,2.3,1.2,2.3,3
		c0,2-1.2,3.2-2.5,3.2C53.2,11.3,52.6,11,52.1,10.6z M55.3,8.2c0-1.3-0.4-2.1-1.5-2.1c-0.5,0-1,0.3-1.6,0.8v3.1
		c0.5,0.4,1,0.6,1.4,0.6C54.6,10.5,55.3,9.6,55.3,8.2z"/>
	<path class="st4" d="M57.2,13.5l0.2-0.8c0.1,0,0.3,0.1,0.4,0.1c0.7,0,1.1-0.5,1.3-1.3l0.1-0.4l-2.3-5.8h1l1.2,3.2
		c0.2,0.5,0.4,1.1,0.6,1.6h0c0.2-0.5,0.3-1.1,0.5-1.6l1-3.2h1l-2.2,6.3c-0.4,1.2-1,2-2.2,2C57.6,13.7,57.4,13.6,57.2,13.5z"/>
</g>
</svg>
